<?xml version="1.0" encoding="UTF-8"?>
<!-- Generated by Pixelmator Pro 3.3.8 -->
<svg width="48" height="48" viewBox="0 0 48 48" xmlns="http://www.w3.org/2000/svg">
    <path id="Ellipse" fill="#21252b" fill-rule="evenodd" stroke="none" d="M 48 24 C 48 10.745167 37.254833 0 24 0 C 10.745166 0 0 10.745167 0 24 C 0 37.254833 10.745166 48 24 48 C 37.254833 48 48 37.254833 48 24 Z"/>
    <path id="m" fill="#abb2bf" fill-rule="evenodd" stroke="none" d="M 10.93897 33 L 10.93897 15.404491 L 15.253577 15.404491 L 15.253577 18.337078 L 15.422115 18.337078 C 15.759196 17.415724 16.298517 16.629215 17.040094 15.977528 C 17.781672 15.325836 18.815369 15 20.141216 15 C 21.354706 15 22.399639 15.292133 23.276049 15.876404 C 24.152458 16.460678 24.804136 17.348309 25.231106 18.539326 L 25.298521 18.539326 C 25.613129 17.550556 26.236717 16.713486 27.169308 16.028088 C 28.101896 15.34269 29.276041 15 30.69178 15 C 32.422123 15 33.753574 15.595497 34.686161 16.786516 C 35.618752 17.977533 36.085041 19.674147 36.085041 21.876404 L 36.085041 33 L 31.770432 33 L 31.770432 22.314606 C 31.770432 19.797739 30.82662 18.539326 28.938971 18.539326 C 28.512003 18.539326 28.101894 18.601122 27.708633 18.724718 C 27.315372 18.848314 26.967062 19.028088 26.663691 19.264044 C 26.360317 19.5 26.118746 19.792133 25.938971 20.14045 C 25.759193 20.488766 25.669308 20.898874 25.669308 21.370787 L 25.669308 33 L 21.3547 33 L 21.3547 22.314606 C 21.3547 19.797739 20.410889 18.539326 18.523239 18.539326 C 18.118744 18.539326 17.719872 18.601122 17.326611 18.724718 C 16.93335 18.848314 16.585039 19.028088 16.281666 19.264044 C 15.978294 19.5 15.731106 19.792133 15.540093 20.14045 C 15.349081 20.488766 15.253577 20.898874 15.253577 21.370787 L 15.253577 33 Z"/>
</svg>
